<svg xmlns="http://www.w3.org/2000/svg" xmlns:xlink="http://www.w3.org/1999/xlink" width="856" zoomAndPan="magnify" viewBox="0 0 642 455.999984" height="608" preserveAspectRatio="xMidYMid meet" version="1.0"><defs><g/></defs><g fill="#ffffff" fill-opacity="1"><g transform="translate(159.886509, 157.150557)"><g><path d="M 51.59375 -42.265625 L 51.59375 0 L 41.296875 0 L 41.296875 -25.34375 L 31.84375 0 L 23.546875 0 L 14.03125 -25.40625 L 14.03125 0 L 3.734375 0 L 3.734375 -42.265625 L 15.890625 -42.265625 L 27.75 -13 L 39.5 -42.265625 Z M 51.59375 -42.265625 "/></g></g></g><g fill="#ffffff" fill-opacity="1"><g transform="translate(216.413669, 157.150557)"><g><path d="M 30.046875 -7.46875 L 14.265625 -7.46875 L 11.734375 0 L 0.96875 0 L 16.25 -42.265625 L 28.171875 -42.265625 L 43.46875 0 L 32.5625 0 Z M 27.390625 -15.40625 L 22.15625 -30.890625 L 16.984375 -15.40625 Z M 27.390625 -15.40625 "/></g></g></g><g fill="#ffffff" fill-opacity="1"><g transform="translate(262.044785, 157.150557)"><g><path d="M 25.28125 0 L 16.5 -15.953125 L 14.03125 -15.953125 L 14.03125 0 L 3.734375 0 L 3.734375 -42.265625 L 21.015625 -42.265625 C 24.335938 -42.265625 27.171875 -41.679688 29.515625 -40.515625 C 31.867188 -39.347656 33.628906 -37.75 34.796875 -35.71875 C 35.960938 -33.695312 36.546875 -31.441406 36.546875 -28.953125 C 36.546875 -26.148438 35.75 -23.644531 34.15625 -21.4375 C 32.570312 -19.226562 30.238281 -17.660156 27.15625 -16.734375 L 36.90625 0 Z M 14.03125 -23.234375 L 20.40625 -23.234375 C 22.289062 -23.234375 23.703125 -23.691406 24.640625 -24.609375 C 25.585938 -25.535156 26.0625 -26.84375 26.0625 -28.53125 C 26.0625 -30.132812 25.585938 -31.398438 24.640625 -32.328125 C 23.703125 -33.253906 22.289062 -33.71875 20.40625 -33.71875 L 14.03125 -33.71875 Z M 14.03125 -23.234375 "/></g></g></g><g fill="#ffffff" fill-opacity="1"><g transform="translate(302.558972, 157.150557)"><g><path d="M 29.3125 -21.671875 C 31.757812 -21.148438 33.726562 -19.9375 35.21875 -18.03125 C 36.707031 -16.125 37.453125 -13.945312 37.453125 -11.5 C 37.453125 -7.96875 36.21875 -5.164062 33.75 -3.09375 C 31.28125 -1.03125 27.835938 0 23.421875 0 L 3.734375 0 L 3.734375 -42.265625 L 22.75 -42.265625 C 27.050781 -42.265625 30.414062 -41.28125 32.84375 -39.3125 C 35.269531 -37.34375 36.484375 -34.675781 36.484375 -31.3125 C 36.484375 -28.820312 35.828125 -26.753906 34.515625 -25.109375 C 33.210938 -23.460938 31.476562 -22.316406 29.3125 -21.671875 Z M 14.03125 -25.171875 L 20.765625 -25.171875 C 22.453125 -25.171875 23.742188 -25.539062 24.640625 -26.28125 C 25.546875 -27.019531 26 -28.113281 26 -29.5625 C 26 -31.007812 25.546875 -32.113281 24.640625 -32.875 C 23.742188 -33.632812 22.453125 -34.015625 20.765625 -34.015625 L 14.03125 -34.015625 Z M 21.609375 -8.3125 C 23.335938 -8.3125 24.671875 -8.703125 25.609375 -9.484375 C 26.554688 -10.265625 27.03125 -11.398438 27.03125 -12.890625 C 27.03125 -14.367188 26.535156 -15.53125 25.546875 -16.375 C 24.566406 -17.21875 23.21875 -17.640625 21.5 -17.640625 L 14.03125 -17.640625 L 14.03125 -8.3125 Z M 21.609375 -8.3125 "/></g></g></g><g fill="#ffffff" fill-opacity="1"><g transform="translate(343.494554, 157.150557)"><g><path d="M 14.03125 -34.015625 L 14.03125 -25.46875 L 27.8125 -25.46875 L 27.8125 -17.515625 L 14.03125 -17.515625 L 14.03125 -8.25 L 29.625 -8.25 L 29.625 0 L 3.734375 0 L 3.734375 -42.265625 L 29.625 -42.265625 L 29.625 -34.015625 Z M 14.03125 -34.015625 "/></g></g></g><g fill="#ffffff" fill-opacity="1"><g transform="translate(377.32664, 157.150557)"><g><path d="M 14.03125 -7.953125 L 27.515625 -7.953125 L 27.515625 0 L 3.734375 0 L 3.734375 -42.265625 L 14.03125 -42.265625 Z M 14.03125 -7.953125 "/></g></g></g><g fill="#ffffff" fill-opacity="1"><g transform="translate(407.30597, 157.150557)"><g><path d="M 14.03125 -7.953125 L 27.515625 -7.953125 L 27.515625 0 L 3.734375 0 L 3.734375 -42.265625 L 14.03125 -42.265625 Z M 14.03125 -7.953125 "/></g></g></g><g fill="#ffffff" fill-opacity="1"><g transform="translate(437.285322, 157.150557)"><g><path d="M 30.046875 -7.46875 L 14.265625 -7.46875 L 11.734375 0 L 0.96875 0 L 16.25 -42.265625 L 28.171875 -42.265625 L 43.46875 0 L 32.5625 0 Z M 27.390625 -15.40625 L 22.15625 -30.890625 L 16.984375 -15.40625 Z M 27.390625 -15.40625 "/></g></g></g><g fill="#ffffff" fill-opacity="1"><g transform="translate(149.257604, 306.400546)"><g><path d="M 73.234375 -69.0625 C 80.972656 -67.664062 87.472656 -63.859375 92.734375 -57.640625 C 98.003906 -51.421875 100.640625 -44.128906 100.640625 -35.765625 C 100.640625 -28.910156 99.019531 -22.789062 95.78125 -17.40625 C 92.550781 -12.019531 87.734375 -7.769531 81.328125 -4.65625 C 74.921875 -1.550781 67.148438 0 58.015625 0 L 15.59375 0 L 15.59375 -133.546875 L 57.265625 -133.546875 C 70.578125 -133.546875 80.625 -130.46875 87.40625 -124.3125 C 94.195312 -118.164062 97.59375 -110.207031 97.59375 -100.4375 C 97.59375 -91.945312 95.304688 -85.066406 90.734375 -79.796875 C 86.171875 -74.535156 80.335938 -70.957031 73.234375 -69.0625 Z M 24.15625 -72.859375 L 57.640625 -72.859375 C 67.660156 -72.859375 75.363281 -75.234375 80.75 -79.984375 C 86.144531 -84.742188 88.84375 -91.3125 88.84375 -99.6875 C 88.84375 -107.800781 86.175781 -114.203125 80.84375 -118.890625 C 75.519531 -123.585938 67.46875 -125.9375 56.6875 -125.9375 L 24.15625 -125.9375 Z M 57.453125 -7.421875 C 68.234375 -7.421875 76.695312 -9.988281 82.84375 -15.125 C 89 -20.257812 92.078125 -27.328125 92.078125 -36.328125 C 92.078125 -45.210938 88.9375 -52.285156 82.65625 -57.546875 C 76.375 -62.804688 67.78125 -65.4375 56.875 -65.4375 L 24.15625 -65.4375 L 24.15625 -7.421875 Z M 57.453125 -7.421875 "/></g></g></g><g fill="#ffffff" fill-opacity="1"><g transform="translate(263.389041, 306.400546)"><g><path d="M 91.3125 -34.25 L 27.96875 -34.25 L 15.21875 0 L 5.890625 0 L 54.984375 -130.5 L 64.484375 -130.5 L 113.375 0 L 104.0625 0 Z M 88.65625 -41.46875 L 59.734375 -119.28125 L 30.625 -41.46875 Z M 88.65625 -41.46875 "/></g></g></g><g fill="#ffffff" fill-opacity="1"><g transform="translate(386.650987, 306.400546)"><g><path d="M 97.96875 -133.546875 L 55.921875 -54.03125 L 55.921875 0 L 47.375 0 L 47.375 -54.03125 L 4.953125 -133.546875 L 14.640625 -133.546875 L 51.546875 -62.015625 L 88.265625 -133.546875 Z M 97.96875 -133.546875 "/></g></g></g><g fill="#ffffff" fill-opacity="1"><g transform="translate(160.150203, 354.029387)"><g><path d="M 23.078125 -5.734375 L 10.96875 -5.734375 L 9.015625 0 L 0.734375 0 L 12.484375 -32.46875 L 21.640625 -32.46875 L 33.390625 0 L 25.015625 0 Z M 21.046875 -11.84375 L 17.015625 -23.71875 L 13.046875 -11.84375 Z M 21.046875 -11.84375 "/></g></g></g><g fill="#ffffff" fill-opacity="1"><g transform="translate(195.202115, 354.029387)"><g><path d="M 27.609375 -22.015625 C 27.609375 -20.128906 27.175781 -18.40625 26.3125 -16.84375 C 25.445312 -15.289062 24.117188 -14.035156 22.328125 -13.078125 C 20.546875 -12.128906 18.328125 -11.65625 15.671875 -11.65625 L 10.78125 -11.65625 L 10.78125 0 L 2.875 0 L 2.875 -32.46875 L 15.671875 -32.46875 C 18.265625 -32.46875 20.453125 -32.019531 22.234375 -31.125 C 24.023438 -30.226562 25.367188 -28.992188 26.265625 -27.421875 C 27.160156 -25.847656 27.609375 -24.046875 27.609375 -22.015625 Z M 15.078125 -17.9375 C 16.585938 -17.9375 17.710938 -18.289062 18.453125 -19 C 19.191406 -19.71875 19.5625 -20.722656 19.5625 -22.015625 C 19.5625 -23.304688 19.191406 -24.304688 18.453125 -25.015625 C 17.710938 -25.722656 16.585938 -26.078125 15.078125 -26.078125 L 10.78125 -26.078125 L 10.78125 -17.9375 Z M 15.078125 -17.9375 "/></g></g></g><g fill="#ffffff" fill-opacity="1"><g transform="translate(225.028666, 354.029387)"><g><path d="M 23.078125 -5.734375 L 10.96875 -5.734375 L 9.015625 0 L 0.734375 0 L 12.484375 -32.46875 L 21.640625 -32.46875 L 33.390625 0 L 25.015625 0 Z M 21.046875 -11.84375 L 17.015625 -23.71875 L 13.046875 -11.84375 Z M 21.046875 -11.84375 "/></g></g></g><g fill="#ffffff" fill-opacity="1"><g transform="translate(260.080578, 354.029387)"><g><path d="M 19.421875 0 L 12.671875 -12.25 L 10.78125 -12.25 L 10.78125 0 L 2.875 0 L 2.875 -32.46875 L 16.140625 -32.46875 C 18.703125 -32.46875 20.882812 -32.019531 22.6875 -31.125 C 24.488281 -30.226562 25.835938 -29 26.734375 -27.4375 C 27.628906 -25.882812 28.078125 -24.15625 28.078125 -22.25 C 28.078125 -20.09375 27.46875 -18.164062 26.25 -16.46875 C 25.03125 -14.769531 23.234375 -13.566406 20.859375 -12.859375 L 28.34375 0 Z M 10.78125 -17.859375 L 15.671875 -17.859375 C 17.128906 -17.859375 18.21875 -18.210938 18.9375 -18.921875 C 19.664062 -19.628906 20.03125 -20.628906 20.03125 -21.921875 C 20.03125 -23.148438 19.664062 -24.117188 18.9375 -24.828125 C 18.21875 -25.546875 17.128906 -25.90625 15.671875 -25.90625 L 10.78125 -25.90625 Z M 10.78125 -17.859375 "/></g></g></g><g fill="#ffffff" fill-opacity="1"><g transform="translate(291.201902, 354.029387)"><g><path d="M 26.21875 -32.46875 L 26.21875 -26.125 L 17.625 -26.125 L 17.625 0 L 9.71875 0 L 9.71875 -26.125 L 1.109375 -26.125 L 1.109375 -32.46875 Z M 26.21875 -32.46875 "/></g></g></g><g fill="#ffffff" fill-opacity="1"><g transform="translate(319.502463, 354.029387)"><g><path d="M 39.640625 -32.46875 L 39.640625 0 L 31.734375 0 L 31.734375 -19.46875 L 24.46875 0 L 18.078125 0 L 10.78125 -19.515625 L 10.78125 0 L 2.875 0 L 2.875 -32.46875 L 12.203125 -32.46875 L 21.328125 -9.984375 L 30.34375 -32.46875 Z M 39.640625 -32.46875 "/></g></g></g><g fill="#ffffff" fill-opacity="1"><g transform="translate(362.924205, 354.029387)"><g><path d="M 10.78125 -26.125 L 10.78125 -19.5625 L 21.375 -19.5625 L 21.375 -13.453125 L 10.78125 -13.453125 L 10.78125 -6.34375 L 22.75 -6.34375 L 22.75 0 L 2.875 0 L 2.875 -32.46875 L 22.75 -32.46875 L 22.75 -26.125 Z M 10.78125 -26.125 "/></g></g></g><g fill="#ffffff" fill-opacity="1"><g transform="translate(388.912637, 354.029387)"><g><path d="M 31.90625 0 L 24 0 L 10.78125 -20.03125 L 10.78125 0 L 2.875 0 L 2.875 -32.46875 L 10.78125 -32.46875 L 24 -12.34375 L 24 -32.46875 L 31.90625 -32.46875 Z M 31.90625 0 "/></g></g></g><g fill="#ffffff" fill-opacity="1"><g transform="translate(424.658209, 354.029387)"><g><path d="M 26.21875 -32.46875 L 26.21875 -26.125 L 17.625 -26.125 L 17.625 0 L 9.71875 0 L 9.71875 -26.125 L 1.109375 -26.125 L 1.109375 -32.46875 Z M 26.21875 -32.46875 "/></g></g></g><g fill="#ffffff" fill-opacity="1"><g transform="translate(452.958759, 354.029387)"><g><path d="M 14.609375 0.328125 C 12.234375 0.328125 10.101562 -0.0546875 8.21875 -0.828125 C 6.34375 -1.597656 4.84375 -2.738281 3.71875 -4.25 C 2.59375 -5.757812 2 -7.582031 1.9375 -9.71875 L 10.359375 -9.71875 C 10.484375 -8.507812 10.898438 -7.585938 11.609375 -6.953125 C 12.316406 -6.328125 13.242188 -6.015625 14.390625 -6.015625 C 15.554688 -6.015625 16.476562 -6.28125 17.15625 -6.8125 C 17.832031 -7.351562 18.171875 -8.101562 18.171875 -9.0625 C 18.171875 -9.863281 17.898438 -10.523438 17.359375 -11.046875 C 16.828125 -11.578125 16.164062 -12.007812 15.375 -12.34375 C 14.59375 -12.6875 13.476562 -13.070312 12.03125 -13.5 C 9.925781 -14.144531 8.210938 -14.789062 6.890625 -15.4375 C 5.566406 -16.09375 4.425781 -17.050781 3.46875 -18.3125 C 2.507812 -19.582031 2.03125 -21.234375 2.03125 -23.265625 C 2.03125 -26.285156 3.125 -28.648438 5.3125 -30.359375 C 7.507812 -32.078125 10.363281 -32.9375 13.875 -32.9375 C 17.445312 -32.9375 20.328125 -32.078125 22.515625 -30.359375 C 24.710938 -28.648438 25.882812 -26.269531 26.03125 -23.21875 L 17.484375 -23.21875 C 17.421875 -24.269531 17.035156 -25.09375 16.328125 -25.6875 C 15.617188 -26.289062 14.707031 -26.59375 13.59375 -26.59375 C 12.632812 -26.59375 11.863281 -26.335938 11.28125 -25.828125 C 10.695312 -25.316406 10.40625 -24.585938 10.40625 -23.640625 C 10.40625 -22.585938 10.894531 -21.765625 11.875 -21.171875 C 12.863281 -20.585938 14.410156 -19.957031 16.515625 -19.28125 C 18.609375 -18.570312 20.3125 -17.894531 21.625 -17.25 C 22.9375 -16.601562 24.066406 -15.660156 25.015625 -14.421875 C 25.972656 -13.191406 26.453125 -11.609375 26.453125 -9.671875 C 26.453125 -7.816406 25.984375 -6.132812 25.046875 -4.625 C 24.109375 -3.113281 22.742188 -1.910156 20.953125 -1.015625 C 19.160156 -0.117188 17.046875 0.328125 14.609375 0.328125 Z M 14.609375 0.328125 "/></g></g></g></svg>